<mxfile host="app.diagrams.net" modified="2020-12-10T08:57:55.193Z" agent="5.0 (Macintosh; Intel Mac OS X 11_0_0) AppleWebKit/537.36 (KHTML, like Gecko) Chrome/87.0.4280.88 Safari/537.36" etag="c3rPKDUtoa7sbb0hl7do" version="14.0.0" type="github">
  <diagram id="JaA-OT9fFw2yV6Z5eOHY" name="Page-1">
    <mxGraphModel dx="774" dy="506" grid="1" gridSize="10" guides="1" tooltips="1" connect="1" arrows="1" fold="1" page="1" pageScale="1" pageWidth="827" pageHeight="1169" math="0" shadow="0">
      <root>
        <mxCell id="0" />
        <mxCell id="1" parent="0" />
        <mxCell id="w_kIlzmvYalaGTOZgmUp-1" value="" style="rounded=0;whiteSpace=wrap;html=1;" parent="1" vertex="1">
          <mxGeometry x="150" y="100" width="620" height="60" as="geometry" />
        </mxCell>
        <mxCell id="w_kIlzmvYalaGTOZgmUp-2" value="&lt;font style=&quot;vertical-align: inherit&quot;&gt;&lt;font style=&quot;vertical-align: inherit&quot;&gt;MY MUSIC&lt;/font&gt;&lt;/font&gt;" style="text;html=1;strokeColor=none;fillColor=none;align=center;verticalAlign=middle;whiteSpace=wrap;rounded=0;" parent="1" vertex="1">
          <mxGeometry x="160" y="120" width="110" height="20" as="geometry" />
        </mxCell>
        <mxCell id="w_kIlzmvYalaGTOZgmUp-4" value="" style="rounded=0;whiteSpace=wrap;html=1;" parent="1" vertex="1">
          <mxGeometry x="150" y="160" width="620" height="390" as="geometry" />
        </mxCell>
        <mxCell id="w_kIlzmvYalaGTOZgmUp-5" value="&lt;font style=&quot;vertical-align: inherit&quot;&gt;&lt;font style=&quot;vertical-align: inherit&quot;&gt;MES ARTISTES&amp;nbsp;&lt;/font&gt;&lt;/font&gt;" style="text;html=1;strokeColor=none;fillColor=none;align=center;verticalAlign=middle;whiteSpace=wrap;rounded=0;" parent="1" vertex="1">
          <mxGeometry x="155" y="170" width="130" height="20" as="geometry" />
        </mxCell>
        <mxCell id="w_kIlzmvYalaGTOZgmUp-6" value="&lt;span&gt;&lt;font style=&quot;vertical-align: inherit&quot;&gt;&lt;font style=&quot;vertical-align: inherit&quot;&gt;photo&lt;/font&gt;&lt;/font&gt;&lt;/span&gt;" style="rounded=0;whiteSpace=wrap;html=1;" parent="1" vertex="1">
          <mxGeometry x="180" y="210" width="70" height="60" as="geometry" />
        </mxCell>
        <mxCell id="w_kIlzmvYalaGTOZgmUp-7" value="&lt;span&gt;&lt;font style=&quot;vertical-align: inherit&quot;&gt;&lt;font style=&quot;vertical-align: inherit&quot;&gt;photo&lt;/font&gt;&lt;/font&gt;&lt;/span&gt;" style="rounded=0;whiteSpace=wrap;html=1;" parent="1" vertex="1">
          <mxGeometry x="180" y="300" width="70" height="60" as="geometry" />
        </mxCell>
        <mxCell id="w_kIlzmvYalaGTOZgmUp-10" value="&lt;span&gt;&lt;font style=&quot;vertical-align: inherit&quot;&gt;&lt;font style=&quot;vertical-align: inherit&quot;&gt;photo&lt;/font&gt;&lt;/font&gt;&lt;/span&gt;" style="rounded=0;whiteSpace=wrap;html=1;" parent="1" vertex="1">
          <mxGeometry x="180" y="480" width="70" height="60" as="geometry" />
        </mxCell>
        <mxCell id="w_kIlzmvYalaGTOZgmUp-11" value="" style="rounded=0;whiteSpace=wrap;html=1;" parent="1" vertex="1">
          <mxGeometry x="180" y="390" width="70" height="60" as="geometry" />
        </mxCell>
        <mxCell id="w_kIlzmvYalaGTOZgmUp-12" value="&lt;span&gt;&lt;font style=&quot;vertical-align: inherit&quot;&gt;&lt;font style=&quot;vertical-align: inherit&quot;&gt;photo&lt;/font&gt;&lt;/font&gt;&lt;/span&gt;" style="rounded=0;whiteSpace=wrap;html=1;" parent="1" vertex="1">
          <mxGeometry x="270" y="215" width="177.5" height="50" as="geometry" />
        </mxCell>
        <mxCell id="w_kIlzmvYalaGTOZgmUp-15" value="&lt;font style=&quot;vertical-align: inherit&quot;&gt;&lt;font style=&quot;vertical-align: inherit&quot;&gt;&lt;font style=&quot;vertical-align: inherit&quot;&gt;&lt;font style=&quot;vertical-align: inherit&quot;&gt;photo&lt;/font&gt;&lt;/font&gt;&lt;/font&gt;&lt;/font&gt;" style="text;html=1;strokeColor=none;fillColor=none;align=center;verticalAlign=middle;whiteSpace=wrap;rounded=0;" parent="1" vertex="1">
          <mxGeometry x="200" y="405" width="40" height="30" as="geometry" />
        </mxCell>
        <mxCell id="w_kIlzmvYalaGTOZgmUp-43" value="" style="rounded=0;whiteSpace=wrap;html=1;" parent="1" vertex="1">
          <mxGeometry x="150" y="550" width="620" height="60" as="geometry" />
        </mxCell>
        <mxCell id="w_kIlzmvYalaGTOZgmUp-44" value="A PROPOS&lt;span style=&quot;color: rgba(0 , 0 , 0 , 0) ; font-family: monospace ; font-size: 0px&quot;&gt;%3CmxGraphModel%3E%3Croot%3E%3CmxCell%20id%3D%220%22%2F%3E%3CmxCell%20id%3D%221%22%20parent%3D%220%22%2F%3E%3CmxCell%20id%3D%222%22%20value%3D%22GO%22%20style%3D%22text%3Bhtml%3D1%3BstrokeColor%3Dnone%3BfillColor%3Dnone%3Balign%3Dcenter%3BverticalAlign%3Dmiddle%3BwhiteSpace%3Dwrap%3Brounded%3D0%3B%22%20vertex%3D%221%22%20parent%3D%221%22%3E%3CmxGeometry%20x%3D%22330%22%20y%3D%22500%22%20width%3D%2235%22%20height%3D%2220%22%20as%3D%22geometry%22%2F%3E%3C%2FmxCell%3E%3C%2Froot%3E%3C%2FmxGraphModel%3E&lt;/span&gt;" style="text;html=1;strokeColor=none;fillColor=none;align=center;verticalAlign=middle;whiteSpace=wrap;rounded=0;" parent="1" vertex="1">
          <mxGeometry x="180" y="570" width="110" height="20" as="geometry" />
        </mxCell>
        <mxCell id="w_kIlzmvYalaGTOZgmUp-45" value="LIENS&amp;nbsp;" style="text;html=1;strokeColor=none;fillColor=none;align=center;verticalAlign=middle;whiteSpace=wrap;rounded=0;" parent="1" vertex="1">
          <mxGeometry x="327.5" y="570" width="40" height="20" as="geometry" />
        </mxCell>
        <mxCell id="w_kIlzmvYalaGTOZgmUp-46" value="PARTENAIRES" style="text;html=1;strokeColor=none;fillColor=none;align=center;verticalAlign=middle;whiteSpace=wrap;rounded=0;" parent="1" vertex="1">
          <mxGeometry x="440" y="570" width="55" height="20" as="geometry" />
        </mxCell>
        <mxCell id="w_kIlzmvYalaGTOZgmUp-47" value="SUPPORT" style="text;html=1;strokeColor=none;fillColor=none;align=center;verticalAlign=middle;whiteSpace=wrap;rounded=0;" parent="1" vertex="1">
          <mxGeometry x="560" y="570" width="40" height="20" as="geometry" />
        </mxCell>
        <mxCell id="w_kIlzmvYalaGTOZgmUp-52" value="CONTACT" style="text;html=1;strokeColor=none;fillColor=none;align=center;verticalAlign=middle;whiteSpace=wrap;rounded=0;" parent="1" vertex="1">
          <mxGeometry x="660" y="570" width="40" height="20" as="geometry" />
        </mxCell>
        <mxCell id="w_kIlzmvYalaGTOZgmUp-53" value="" style="strokeWidth=2;html=1;shape=mxgraph.flowchart.annotation_2;align=left;labelPosition=right;pointerEvents=1;" parent="1" vertex="1">
          <mxGeometry x="90" y="100" width="50" height="60" as="geometry" />
        </mxCell>
        <mxCell id="w_kIlzmvYalaGTOZgmUp-54" value="" style="strokeWidth=2;html=1;shape=mxgraph.flowchart.annotation_2;align=left;labelPosition=right;pointerEvents=1;" parent="1" vertex="1">
          <mxGeometry x="90" y="180" width="50" height="360" as="geometry" />
        </mxCell>
        <mxCell id="w_kIlzmvYalaGTOZgmUp-55" value="" style="strokeWidth=2;html=1;shape=mxgraph.flowchart.annotation_2;align=left;labelPosition=right;pointerEvents=1;" parent="1" vertex="1">
          <mxGeometry x="90" y="550" width="50" height="60" as="geometry" />
        </mxCell>
        <mxCell id="w_kIlzmvYalaGTOZgmUp-56" value="NAV BAR" style="text;html=1;strokeColor=none;fillColor=none;align=center;verticalAlign=middle;whiteSpace=wrap;rounded=0;" parent="1" vertex="1">
          <mxGeometry x="10" y="120" width="60" height="20" as="geometry" />
        </mxCell>
        <mxCell id="w_kIlzmvYalaGTOZgmUp-57" value="BODY" style="text;html=1;strokeColor=none;fillColor=none;align=center;verticalAlign=middle;whiteSpace=wrap;rounded=0;" parent="1" vertex="1">
          <mxGeometry x="20" y="350" width="40" height="20" as="geometry" />
        </mxCell>
        <mxCell id="w_kIlzmvYalaGTOZgmUp-58" value="FOOTER" style="text;html=1;strokeColor=none;fillColor=none;align=center;verticalAlign=middle;whiteSpace=wrap;rounded=0;" parent="1" vertex="1">
          <mxGeometry x="20" y="570" width="50" height="20" as="geometry" />
        </mxCell>
        <mxCell id="4utNDAT8kDiC7yN7XBvN-2" value="&lt;span&gt;&lt;font style=&quot;vertical-align: inherit&quot;&gt;&lt;font style=&quot;vertical-align: inherit&quot;&gt;photo&lt;/font&gt;&lt;/font&gt;&lt;/span&gt;" style="rounded=0;whiteSpace=wrap;html=1;" vertex="1" parent="1">
          <mxGeometry x="270" y="485" width="177.5" height="50" as="geometry" />
        </mxCell>
        <mxCell id="4utNDAT8kDiC7yN7XBvN-3" value="&lt;span&gt;&lt;font style=&quot;vertical-align: inherit&quot;&gt;&lt;font style=&quot;vertical-align: inherit&quot;&gt;photo&lt;/font&gt;&lt;/font&gt;&lt;/span&gt;" style="rounded=0;whiteSpace=wrap;html=1;" vertex="1" parent="1">
          <mxGeometry x="270" y="395" width="177.5" height="50" as="geometry" />
        </mxCell>
        <mxCell id="4utNDAT8kDiC7yN7XBvN-4" value="&lt;span&gt;&lt;font style=&quot;vertical-align: inherit&quot;&gt;&lt;font style=&quot;vertical-align: inherit&quot;&gt;photo&lt;/font&gt;&lt;/font&gt;&lt;/span&gt;" style="rounded=0;whiteSpace=wrap;html=1;" vertex="1" parent="1">
          <mxGeometry x="270" y="305" width="177.5" height="50" as="geometry" />
        </mxCell>
        <mxCell id="4utNDAT8kDiC7yN7XBvN-5" value="LEUR DERNIER CLIP" style="text;html=1;strokeColor=none;fillColor=none;align=center;verticalAlign=middle;whiteSpace=wrap;rounded=0;" vertex="1" parent="1">
          <mxGeometry x="279" y="170" width="161" height="20" as="geometry" />
        </mxCell>
        <mxCell id="4utNDAT8kDiC7yN7XBvN-6" value="LA BIOGRAPHIE DU MOMENT" style="text;html=1;strokeColor=none;fillColor=none;align=center;verticalAlign=middle;whiteSpace=wrap;rounded=0;" vertex="1" parent="1">
          <mxGeometry x="570" y="170" width="190" height="20" as="geometry" />
        </mxCell>
        <mxCell id="4utNDAT8kDiC7yN7XBvN-7" value="" style="rounded=1;whiteSpace=wrap;html=1;" vertex="1" parent="1">
          <mxGeometry x="580" y="200" width="170" height="100" as="geometry" />
        </mxCell>
        <mxCell id="4utNDAT8kDiC7yN7XBvN-8" value="Photo" style="text;html=1;strokeColor=none;fillColor=none;align=center;verticalAlign=middle;whiteSpace=wrap;rounded=0;" vertex="1" parent="1">
          <mxGeometry x="627.5" y="230" width="75" height="40" as="geometry" />
        </mxCell>
        <mxCell id="4utNDAT8kDiC7yN7XBvN-9" value="" style="rounded=0;whiteSpace=wrap;html=1;" vertex="1" parent="1">
          <mxGeometry x="585" y="320" width="160" height="85" as="geometry" />
        </mxCell>
        <mxCell id="4utNDAT8kDiC7yN7XBvN-10" value="Biographie" style="text;html=1;strokeColor=none;fillColor=none;align=center;verticalAlign=middle;whiteSpace=wrap;rounded=0;" vertex="1" parent="1">
          <mxGeometry x="645" y="352.5" width="40" height="20" as="geometry" />
        </mxCell>
        <mxCell id="4utNDAT8kDiC7yN7XBvN-11" value="" style="rounded=0;whiteSpace=wrap;html=1;" vertex="1" parent="1">
          <mxGeometry x="580" y="430" width="170" height="100" as="geometry" />
        </mxCell>
        <mxCell id="4utNDAT8kDiC7yN7XBvN-12" value="Ses prochains concerts&amp;nbsp;" style="text;html=1;strokeColor=none;fillColor=none;align=center;verticalAlign=middle;whiteSpace=wrap;rounded=0;" vertex="1" parent="1">
          <mxGeometry x="595" y="445" width="140" height="20" as="geometry" />
        </mxCell>
        <mxCell id="4utNDAT8kDiC7yN7XBvN-13" value="28/12/20 : Au Casino de Paris&amp;nbsp;" style="text;html=1;strokeColor=none;fillColor=none;align=center;verticalAlign=middle;whiteSpace=wrap;rounded=0;" vertex="1" parent="1">
          <mxGeometry x="585" y="455" width="170" height="75" as="geometry" />
        </mxCell>
      </root>
    </mxGraphModel>
  </diagram>
</mxfile>
